# xmcd
#
# Track frame offsets:
#	150
#	19330
#	33925
#	49387
#	61637
#	76112
#	93925
#	114177
#	129857
#	139562
#	150995
#	165910
#
# Disc length: 2392 seconds
#
# Revision: 4
# Processed by: cddbd v1.5.2PL0 Copyright (c) Steve Scherf et al.
# Submitted via: EZCDAudioConverter 1.3.4.1
#
DISCID=7b09560c
DTITLE=Dr. John - Dr. John's Gumbo
DYEAR=1972
DGENRE=
TTITLE0=Iko Iko
TTITLE1=Blow Wind Blow
TTITLE2=Big Chief
TTITLE3=Somebody Changed The Lock
TTITLE4=Mess Around
TTITLE5=Let The Good Times Roll
TTITLE6=Junko Partner
TTITLE7=Stack-A-Lee
TTITLE8=Tipitina
TTITLE9=Those Lonely Lonely Nights
TTITLE10=Huey Smith Medley (High Blood Pressure - Don't You Just Know It - Wel
TTITLE10=l I'll Be John Brown)
TTITLE11=Little Liza Jane
EXTD=
EXTT0=
EXTT1=
EXTT2=
EXTT3=
EXTT4=
EXTT5=
EXTT6=
EXTT7=
EXTT8=
EXTT9=
EXTT10=
EXTT11=
PLAYORDER=
